<?xml version="1.0" encoding="UTF-8"?>
<svg xmlns="http://www.w3.org/2000/svg" xmlns:xlink="http://www.w3.org/1999/xlink" width="64px" height="64px" viewBox="0 0 64 64" version="1.1">
<g id="surface1">
<path style=" stroke:none;fill-rule:nonzero;fill:rgb(31.764707%,16.862746%,83.137256%);fill-opacity:1;" d="M 56 8 L 8 8 L 8 56 L 56 56 Z M 56 8 "/>
<path style=" stroke:none;fill-rule:nonzero;fill:rgb(100%,100%,100%);fill-opacity:1;" d="M 16.992188 38.230469 C 16.652344 38.230469 16.363281 38.117188 16.125 37.890625 C 15.890625 37.65625 15.769531 37.382812 15.769531 37.0625 C 15.769531 36.738281 15.890625 36.460938 16.125 36.226562 C 16.363281 35.996094 16.652344 35.878906 16.992188 35.878906 C 17.335938 35.878906 17.628906 35.996094 17.867188 36.226562 C 18.109375 36.460938 18.230469 36.738281 18.230469 37.0625 C 18.230469 37.382812 18.109375 37.65625 17.867188 37.890625 C 17.628906 38.117188 17.335938 38.230469 16.992188 38.230469 Z M 16.992188 38.230469 "/>
<path style=" stroke:none;fill-rule:nonzero;fill:rgb(100%,100%,100%);fill-opacity:1;" d="M 29.925781 38 L 27.800781 38 L 22.210938 29.179688 C 22.070312 28.957031 21.953125 28.726562 21.859375 28.484375 L 21.8125 28.484375 C 21.855469 28.742188 21.878906 29.292969 21.878906 30.132812 L 21.878906 38 L 20 38 L 20 26 L 22.261719 26 L 27.664062 34.609375 C 27.890625 34.96875 28.039062 35.214844 28.105469 35.347656 L 28.136719 35.347656 C 28.082031 35.03125 28.054688 34.492188 28.054688 33.730469 L 28.054688 26 L 29.925781 26 Z M 29.925781 38 "/>
<path style=" stroke:none;fill-rule:nonzero;fill:rgb(100%,100%,100%);fill-opacity:1;" d="M 38.570312 38 L 32 38 L 32 26 L 38.308594 26 L 38.308594 27.691406 L 33.941406 27.691406 L 33.941406 31.085938 L 37.964844 31.085938 L 37.964844 32.769531 L 33.941406 32.769531 L 33.941406 36.316406 L 38.570312 36.316406 Z M 38.570312 38 "/>
<path style=" stroke:none;fill-rule:nonzero;fill:rgb(100%,100%,100%);fill-opacity:1;" d="M 47.90625 27.691406 L 44.546875 27.691406 L 44.546875 38 L 42.601562 38 L 42.601562 27.691406 L 39.246094 27.691406 L 39.246094 26 L 47.90625 26 Z M 47.90625 27.691406 "/>
</g>
</svg>
