<?xml version="1.0" encoding="utf-8"?>
<!-- Generator: Adobe Illustrator 26.0.1, SVG Export Plug-In . SVG Version: 6.00 Build 0)  -->
<svg version="1.1" xmlns="http://www.w3.org/2000/svg" xmlns:xlink="http://www.w3.org/1999/xlink" x="0px" y="0px"
	 viewBox="0 0 527 289" style="enable-background:new 0 0 527 289;" xml:space="preserve">
<style type="text/css">
	.st0{fill:#302F81;}
	.st1{fill:#FFFFFF;}
	.st2{font-family:'AdobeSongStd-Light-GBpc-EUC-H';}
	.st3{font-size:60px;}
	.st4{letter-spacing:-2.44;}
</style>
<g id="Kei">
	<g>
		<g>
			<g>
				<path d="M144.51,261.72c-25.54,0-47.15-5.48-64.85-16.45c-17.7-10.77-28.43-25.35-37.17-43.76c-8.96-18.02-8-41.5-20.99-57.01
					C33.34,134.36,28,88,58.83,54.56c21.05-21.94,48.61-32.91,84.68-32.91c25.76,0,48.49,5.49,66.18,16.46
					c17.25,10.97,30.24,25.47,38.98,43.49c8.74,18.22,7.33,51.79,18.79,62.91c-10.46,12.06-16.22,62.76-37.27,84.31
					C209.13,250.75,180.57,261.72,144.51,261.72z M147.54,228.81c19.49,0,35.84-7.1,49.06-21.3c13.21-14.2,19.82-33.74,19.82-58.62
					c0-17.43-2.86-33.25-8.57-47.46c-5.71-14.2-14.34-25.51-25.87-33.94c-11.54-8.42-25.7-12.64-42.5-12.64
					c-10.75,0-21.34,2.94-31.75,8.82s-18.98,14.65-25.7,26.3c-6.72,11.66-10.08,26.3-10.08,43.93c0,15.48,2.86,30.51,8.57,45.11
					c5.71,14.59,14.11,26.55,25.2,35.85C116.79,224.16,130.74,228.81,147.54,228.81z"/>
			</g>
			<g>
				<path class="st0" d="M139.51,261.72c-25.54,0-47.15-5.48-64.85-16.45c-17.7-10.77-28.43-25.35-37.17-43.76
					c-8.96-18.02-8-41.5-20.99-57.01C28.34,134.36,23,88,53.83,54.56c21.05-21.94,48.61-32.91,84.68-32.91
					c25.76,0,48.49,5.49,66.18,16.46c17.25,10.97,30.24,25.47,38.98,43.49c8.74,18.22,7.33,51.79,18.79,62.91
					c-10.46,12.06-16.22,62.76-37.27,84.31C204.13,250.75,175.57,261.72,139.51,261.72z M142.54,228.81
					c19.49,0,35.84-7.1,49.06-21.3c13.21-14.2,19.82-33.74,19.82-58.62c0-17.43-2.86-33.25-8.57-47.46
					c-5.71-14.2-14.34-25.51-25.87-33.94c-11.54-8.42-25.7-12.64-42.5-12.64c-10.75,0-21.34,2.94-31.75,8.82s-18.98,14.65-25.7,26.3
					c-6.72,11.66-10.08,26.3-10.08,43.93c0,15.48,2.86,30.51,8.57,45.11c5.71,14.59,14.11,26.55,25.2,35.85
					C111.79,224.16,125.74,228.81,142.54,228.81z"/>
			</g>
		</g>
		<g>
			<g>
				<path class="st1" d="M36.97,144.3c7.23,0,8.34-3.12,8.34-7.26v-8.4c0-6.72,4.72-10.14,12.11-10.14h1.03v2.64h-1.33
					c-5.46,0-8.12,2.58-8.12,7.44v8.34c0,4.92-2.21,7.92-6.57,8.76c4.43,1.02,6.57,3.48,6.57,8.82v8.22c0,5.28,3.76,7.68,8.19,7.68
					h1.25v2.64h-1.03c-6.2,0-12.11-2.82-12.11-10.2v-8.46c0-3.9-0.74-7.26-8.34-7.26V144.3z"/>
			</g>
		</g>
		<g>
			<g>
				<path class="st1" d="M245.52,147.24c-7.23,0-8.34,3.12-8.34,7.26v8.4c0,6.72-4.72,10.14-12.11,10.14h-1.03v-2.64h1.33
					c5.46,0,8.12-2.58,8.12-7.44v-8.34c0-4.92,2.21-7.92,6.57-8.76c-4.43-1.02-6.57-3.48-6.57-8.82v-8.22
					c0-5.28-3.76-7.68-8.19-7.68h-1.25v-2.64h1.03c6.2,0,12.11,2.82,12.11,10.2v8.46c0,3.9,0.74,7.26,8.34,7.26V147.24z"/>
			</g>
		</g>
	</g>
	<g>
		<g>
			<g>
				<path d="M362.67,141.57L342,157.45v82.38c0,12.58-7.75,19.47-23.25,20.67c-15.5,1.6-23.5-3.99-23.99-16.78
					c-0.99-33.86,1.41-85.55-11.42-99.18c12.67-7.34,6.5-69.68,5.51-103.32c-0.13-2.47-0.22-9.2,4.4-14.14
					c4.23-4.52,11.49-6.19,21.8-5.03c17.96,2,26.94,10.39,26.94,25.16V123l90.79-86.87c11.81-11.38,26.7-15.47,44.66-12.28l2.58,0.3
					c19.19,3.2,21.65,10.48,7.38,21.87l-95.22,72.79l105.19,115.93c12.3,13.58,8.24,21.67-12.18,24.26h-0.37
					c-20.18,2.4-35.56-3.39-46.14-17.37L362.67,141.57z"/>
			</g>
			<g>
				<path class="st0" d="M357.67,141.57L337,157.45v82.38c0,12.58-7.75,19.47-23.25,20.67c-15.5,1.6-23.5-3.99-23.99-16.78
					c-0.99-33.86,1.41-85.55-11.42-99.18c12.67-7.34,6.5-69.68,5.51-103.32c-0.13-2.47-0.22-9.2,4.4-14.14
					c4.23-4.52,11.49-6.19,21.8-5.03c17.96,2,26.94,10.39,26.94,25.16V123l90.79-86.87c11.81-11.38,26.7-15.47,44.66-12.28l2.58,0.3
					c19.19,3.2,21.65,10.48,7.38,21.87l-95.22,72.79l105.19,115.93c12.3,13.58,8.24,21.67-12.18,24.26h-0.37
					c-20.18,2.4-35.56-3.39-46.14-17.37L357.67,141.57z"/>
			</g>
		</g>
		<text transform="matrix(1.2303 0 0 1 303.0352 160.7793)" class="st1 st2 st3 st4">!</text>
	</g>
</g>
<g id="owh">
</g>
</svg>
