<?xml version="1.0" encoding="utf-8"?>
<!-- Generator: Adobe Illustrator 26.0.1, SVG Export Plug-In . SVG Version: 6.00 Build 0)  -->
<svg version="1.1" id="Layer_1" xmlns="http://www.w3.org/2000/svg" xmlns:xlink="http://www.w3.org/1999/xlink" x="0px" y="0px"
	 viewBox="0 0 20 5" style="enable-background:new 0 0 20 5;" xml:space="preserve">
<style type="text/css">
	.st0{fill:#A3A3A3;}
</style>
<g>
	<g>
		<path class="st0" d="M7.6,0l-6,5h2.1l6-5H7.6z M13.5,0l-6,5h2.1l6-5H13.5z M1.8,0L0,1.5v1.8L3.9,0H1.8z M4.7,0L0,3.9V5h0.8l6-5
			H4.7z M10.5,0l-6,5h2.2l6-5H10.5z M16.4,0l-6,5h2.3l6-5H16.4z M0,0v0.9L1,0H0z M20,5V4.7L19.6,5H20z M18.8,5L20,4V1.9L16.3,5H18.8
			z M19.4,0l-6,5h2.1L20,1.3V0H19.4z"/>
	</g>
</g>
</svg>
